<svg xmlns="http://www.w3.org/2000/svg" width="1080" height="1530" viewBox="0 0 1080 1530">
  <rect width="1080" height="1530" fill="#f7f3ea"/>
  <rect x="70" y="70" width="940" height="1390" rx="34" fill="#fffaf0" stroke="#ded6c8" stroke-width="3"/>
  <rect x="110" y="110" width="860" height="295" rx="28" fill="#0f766e"/>
  <text x="540" y="205" text-anchor="middle" fill="#fffaf0" font-family="Arial, sans-serif" font-size="52" font-weight="700" letter-spacing="4">МИКРОМАРКЕТ</text>
  <text x="540" y="315" text-anchor="middle" fill="#fffaf0" font-family="Arial, sans-serif" font-size="94" font-weight="900">Прайс-лист</text>
  <text x="540" y="438" text-anchor="middle" fill="#1f2523" font-family="Arial, sans-serif" font-size="42" font-weight="700">Отсканируйте QR-код</text>
  <rect x="198" y="468" width="684" height="684" rx="30" fill="#ffffff" stroke="#ded6c8" stroke-width="3"/>
  <g fill="#111111"><rect x="297.027" y="567.027" width="16.757" height="16.757"/><rect x="313.784" y="567.027" width="16.757" height="16.757"/><rect x="330.541" y="567.027" width="16.757" height="16.757"/><rect x="347.297" y="567.027" width="16.757" height="16.757"/><rect x="364.054" y="567.027" width="16.757" height="16.757"/><rect x="380.811" y="567.027" width="16.757" height="16.757"/><rect x="397.568" y="567.027" width="16.757" height="16.757"/><rect x="447.838" y="567.027" width="16.757" height="16.757"/><rect x="464.595" y="567.027" width="16.757" height="16.757"/><rect x="481.351" y="567.027" width="16.757" height="16.757"/><rect x="498.108" y="567.027" width="16.757" height="16.757"/><rect x="514.865" y="567.027" width="16.757" height="16.757"/><rect x="531.622" y="567.027" width="16.757" height="16.757"/><rect x="548.378" y="567.027" width="16.757" height="16.757"/><rect x="598.649" y="567.027" width="16.757" height="16.757"/><rect x="615.405" y="567.027" width="16.757" height="16.757"/><rect x="632.162" y="567.027" width="16.757" height="16.757"/><rect x="665.676" y="567.027" width="16.757" height="16.757"/><rect x="682.432" y="567.027" width="16.757" height="16.757"/><rect x="699.189" y="567.027" width="16.757" height="16.757"/><rect x="715.946" y="567.027" width="16.757" height="16.757"/><rect x="732.703" y="567.027" width="16.757" height="16.757"/><rect x="749.459" y="567.027" width="16.757" height="16.757"/><rect x="766.216" y="567.027" width="16.757" height="16.757"/><rect x="297.027" y="583.784" width="16.757" height="16.757"/><rect x="397.568" y="583.784" width="16.757" height="16.757"/><rect x="447.838" y="583.784" width="16.757" height="16.757"/><rect x="481.351" y="583.784" width="16.757" height="16.757"/><rect x="514.865" y="583.784" width="16.757" height="16.757"/><rect x="531.622" y="583.784" width="16.757" height="16.757"/><rect x="548.378" y="583.784" width="16.757" height="16.757"/><rect x="565.135" y="583.784" width="16.757" height="16.757"/><rect x="665.676" y="583.784" width="16.757" height="16.757"/><rect x="766.216" y="583.784" width="16.757" height="16.757"/><rect x="297.027" y="600.541" width="16.757" height="16.757"/><rect x="330.541" y="600.541" width="16.757" height="16.757"/><rect x="347.297" y="600.541" width="16.757" height="16.757"/><rect x="364.054" y="600.541" width="16.757" height="16.757"/><rect x="397.568" y="600.541" width="16.757" height="16.757"/><rect x="431.081" y="600.541" width="16.757" height="16.757"/><rect x="447.838" y="600.541" width="16.757" height="16.757"/><rect x="464.595" y="600.541" width="16.757" height="16.757"/><rect x="481.351" y="600.541" width="16.757" height="16.757"/><rect x="514.865" y="600.541" width="16.757" height="16.757"/><rect x="548.378" y="600.541" width="16.757" height="16.757"/><rect x="598.649" y="600.541" width="16.757" height="16.757"/><rect x="615.405" y="600.541" width="16.757" height="16.757"/><rect x="632.162" y="600.541" width="16.757" height="16.757"/><rect x="665.676" y="600.541" width="16.757" height="16.757"/><rect x="699.189" y="600.541" width="16.757" height="16.757"/><rect x="715.946" y="600.541" width="16.757" height="16.757"/><rect x="732.703" y="600.541" width="16.757" height="16.757"/><rect x="766.216" y="600.541" width="16.757" height="16.757"/><rect x="297.027" y="617.297" width="16.757" height="16.757"/><rect x="330.541" y="617.297" width="16.757" height="16.757"/><rect x="347.297" y="617.297" width="16.757" height="16.757"/><rect x="364.054" y="617.297" width="16.757" height="16.757"/><rect x="397.568" y="617.297" width="16.757" height="16.757"/><rect x="431.081" y="617.297" width="16.757" height="16.757"/><rect x="447.838" y="617.297" width="16.757" height="16.757"/><rect x="498.108" y="617.297" width="16.757" height="16.757"/><rect x="531.622" y="617.297" width="16.757" height="16.757"/><rect x="548.378" y="617.297" width="16.757" height="16.757"/><rect x="581.892" y="617.297" width="16.757" height="16.757"/><rect x="615.405" y="617.297" width="16.757" height="16.757"/><rect x="665.676" y="617.297" width="16.757" height="16.757"/><rect x="699.189" y="617.297" width="16.757" height="16.757"/><rect x="715.946" y="617.297" width="16.757" height="16.757"/><rect x="732.703" y="617.297" width="16.757" height="16.757"/><rect x="766.216" y="617.297" width="16.757" height="16.757"/><rect x="297.027" y="634.054" width="16.757" height="16.757"/><rect x="330.541" y="634.054" width="16.757" height="16.757"/><rect x="347.297" y="634.054" width="16.757" height="16.757"/><rect x="364.054" y="634.054" width="16.757" height="16.757"/><rect x="397.568" y="634.054" width="16.757" height="16.757"/><rect x="431.081" y="634.054" width="16.757" height="16.757"/><rect x="447.838" y="634.054" width="16.757" height="16.757"/><rect x="481.351" y="634.054" width="16.757" height="16.757"/><rect x="548.378" y="634.054" width="16.757" height="16.757"/><rect x="565.135" y="634.054" width="16.757" height="16.757"/><rect x="581.892" y="634.054" width="16.757" height="16.757"/><rect x="598.649" y="634.054" width="16.757" height="16.757"/><rect x="615.405" y="634.054" width="16.757" height="16.757"/><rect x="632.162" y="634.054" width="16.757" height="16.757"/><rect x="665.676" y="634.054" width="16.757" height="16.757"/><rect x="699.189" y="634.054" width="16.757" height="16.757"/><rect x="715.946" y="634.054" width="16.757" height="16.757"/><rect x="732.703" y="634.054" width="16.757" height="16.757"/><rect x="766.216" y="634.054" width="16.757" height="16.757"/><rect x="297.027" y="650.811" width="16.757" height="16.757"/><rect x="397.568" y="650.811" width="16.757" height="16.757"/><rect x="431.081" y="650.811" width="16.757" height="16.757"/><rect x="447.838" y="650.811" width="16.757" height="16.757"/><rect x="481.351" y="650.811" width="16.757" height="16.757"/><rect x="598.649" y="650.811" width="16.757" height="16.757"/><rect x="632.162" y="650.811" width="16.757" height="16.757"/><rect x="665.676" y="650.811" width="16.757" height="16.757"/><rect x="766.216" y="650.811" width="16.757" height="16.757"/><rect x="297.027" y="667.568" width="16.757" height="16.757"/><rect x="313.784" y="667.568" width="16.757" height="16.757"/><rect x="330.541" y="667.568" width="16.757" height="16.757"/><rect x="347.297" y="667.568" width="16.757" height="16.757"/><rect x="364.054" y="667.568" width="16.757" height="16.757"/><rect x="380.811" y="667.568" width="16.757" height="16.757"/><rect x="397.568" y="667.568" width="16.757" height="16.757"/><rect x="431.081" y="667.568" width="16.757" height="16.757"/><rect x="464.595" y="667.568" width="16.757" height="16.757"/><rect x="498.108" y="667.568" width="16.757" height="16.757"/><rect x="531.622" y="667.568" width="16.757" height="16.757"/><rect x="565.135" y="667.568" width="16.757" height="16.757"/><rect x="598.649" y="667.568" width="16.757" height="16.757"/><rect x="632.162" y="667.568" width="16.757" height="16.757"/><rect x="665.676" y="667.568" width="16.757" height="16.757"/><rect x="682.432" y="667.568" width="16.757" height="16.757"/><rect x="699.189" y="667.568" width="16.757" height="16.757"/><rect x="715.946" y="667.568" width="16.757" height="16.757"/><rect x="732.703" y="667.568" width="16.757" height="16.757"/><rect x="749.459" y="667.568" width="16.757" height="16.757"/><rect x="766.216" y="667.568" width="16.757" height="16.757"/><rect x="431.081" y="684.324" width="16.757" height="16.757"/><rect x="447.838" y="684.324" width="16.757" height="16.757"/><rect x="498.108" y="684.324" width="16.757" height="16.757"/><rect x="531.622" y="684.324" width="16.757" height="16.757"/><rect x="565.135" y="684.324" width="16.757" height="16.757"/><rect x="632.162" y="684.324" width="16.757" height="16.757"/><rect x="297.027" y="701.081" width="16.757" height="16.757"/><rect x="330.541" y="701.081" width="16.757" height="16.757"/><rect x="347.297" y="701.081" width="16.757" height="16.757"/><rect x="364.054" y="701.081" width="16.757" height="16.757"/><rect x="380.811" y="701.081" width="16.757" height="16.757"/><rect x="397.568" y="701.081" width="16.757" height="16.757"/><rect x="481.351" y="701.081" width="16.757" height="16.757"/><rect x="565.135" y="701.081" width="16.757" height="16.757"/><rect x="581.892" y="701.081" width="16.757" height="16.757"/><rect x="665.676" y="701.081" width="16.757" height="16.757"/><rect x="682.432" y="701.081" width="16.757" height="16.757"/><rect x="699.189" y="701.081" width="16.757" height="16.757"/><rect x="715.946" y="701.081" width="16.757" height="16.757"/><rect x="732.703" y="701.081" width="16.757" height="16.757"/><rect x="297.027" y="717.838" width="16.757" height="16.757"/><rect x="330.541" y="717.838" width="16.757" height="16.757"/><rect x="347.297" y="717.838" width="16.757" height="16.757"/><rect x="364.054" y="717.838" width="16.757" height="16.757"/><rect x="414.324" y="717.838" width="16.757" height="16.757"/><rect x="447.838" y="717.838" width="16.757" height="16.757"/><rect x="498.108" y="717.838" width="16.757" height="16.757"/><rect x="514.865" y="717.838" width="16.757" height="16.757"/><rect x="531.622" y="717.838" width="16.757" height="16.757"/><rect x="548.378" y="717.838" width="16.757" height="16.757"/><rect x="581.892" y="717.838" width="16.757" height="16.757"/><rect x="598.649" y="717.838" width="16.757" height="16.757"/><rect x="615.405" y="717.838" width="16.757" height="16.757"/><rect x="632.162" y="717.838" width="16.757" height="16.757"/><rect x="648.919" y="717.838" width="16.757" height="16.757"/><rect x="665.676" y="717.838" width="16.757" height="16.757"/><rect x="682.432" y="717.838" width="16.757" height="16.757"/><rect x="699.189" y="717.838" width="16.757" height="16.757"/><rect x="766.216" y="717.838" width="16.757" height="16.757"/><rect x="397.568" y="734.595" width="16.757" height="16.757"/><rect x="431.081" y="734.595" width="16.757" height="16.757"/><rect x="447.838" y="734.595" width="16.757" height="16.757"/><rect x="481.351" y="734.595" width="16.757" height="16.757"/><rect x="498.108" y="734.595" width="16.757" height="16.757"/><rect x="514.865" y="734.595" width="16.757" height="16.757"/><rect x="531.622" y="734.595" width="16.757" height="16.757"/><rect x="548.378" y="734.595" width="16.757" height="16.757"/><rect x="565.135" y="734.595" width="16.757" height="16.757"/><rect x="581.892" y="734.595" width="16.757" height="16.757"/><rect x="682.432" y="734.595" width="16.757" height="16.757"/><rect x="297.027" y="751.351" width="16.757" height="16.757"/><rect x="330.541" y="751.351" width="16.757" height="16.757"/><rect x="414.324" y="751.351" width="16.757" height="16.757"/><rect x="431.081" y="751.351" width="16.757" height="16.757"/><rect x="447.838" y="751.351" width="16.757" height="16.757"/><rect x="514.865" y="751.351" width="16.757" height="16.757"/><rect x="548.378" y="751.351" width="16.757" height="16.757"/><rect x="598.649" y="751.351" width="16.757" height="16.757"/><rect x="615.405" y="751.351" width="16.757" height="16.757"/><rect x="632.162" y="751.351" width="16.757" height="16.757"/><rect x="699.189" y="751.351" width="16.757" height="16.757"/><rect x="715.946" y="751.351" width="16.757" height="16.757"/><rect x="749.459" y="751.351" width="16.757" height="16.757"/><rect x="297.027" y="768.108" width="16.757" height="16.757"/><rect x="364.054" y="768.108" width="16.757" height="16.757"/><rect x="397.568" y="768.108" width="16.757" height="16.757"/><rect x="431.081" y="768.108" width="16.757" height="16.757"/><rect x="447.838" y="768.108" width="16.757" height="16.757"/><rect x="464.595" y="768.108" width="16.757" height="16.757"/><rect x="531.622" y="768.108" width="16.757" height="16.757"/><rect x="548.378" y="768.108" width="16.757" height="16.757"/><rect x="581.892" y="768.108" width="16.757" height="16.757"/><rect x="632.162" y="768.108" width="16.757" height="16.757"/><rect x="648.919" y="768.108" width="16.757" height="16.757"/><rect x="715.946" y="768.108" width="16.757" height="16.757"/><rect x="732.703" y="768.108" width="16.757" height="16.757"/><rect x="313.784" y="784.865" width="16.757" height="16.757"/><rect x="364.054" y="784.865" width="16.757" height="16.757"/><rect x="431.081" y="784.865" width="16.757" height="16.757"/><rect x="464.595" y="784.865" width="16.757" height="16.757"/><rect x="481.351" y="784.865" width="16.757" height="16.757"/><rect x="498.108" y="784.865" width="16.757" height="16.757"/><rect x="548.378" y="784.865" width="16.757" height="16.757"/><rect x="565.135" y="784.865" width="16.757" height="16.757"/><rect x="598.649" y="784.865" width="16.757" height="16.757"/><rect x="615.405" y="784.865" width="16.757" height="16.757"/><rect x="632.162" y="784.865" width="16.757" height="16.757"/><rect x="648.919" y="784.865" width="16.757" height="16.757"/><rect x="665.676" y="784.865" width="16.757" height="16.757"/><rect x="682.432" y="784.865" width="16.757" height="16.757"/><rect x="699.189" y="784.865" width="16.757" height="16.757"/><rect x="766.216" y="784.865" width="16.757" height="16.757"/><rect x="297.027" y="801.622" width="16.757" height="16.757"/><rect x="313.784" y="801.622" width="16.757" height="16.757"/><rect x="347.297" y="801.622" width="16.757" height="16.757"/><rect x="364.054" y="801.622" width="16.757" height="16.757"/><rect x="397.568" y="801.622" width="16.757" height="16.757"/><rect x="498.108" y="801.622" width="16.757" height="16.757"/><rect x="581.892" y="801.622" width="16.757" height="16.757"/><rect x="632.162" y="801.622" width="16.757" height="16.757"/><rect x="665.676" y="801.622" width="16.757" height="16.757"/><rect x="682.432" y="801.622" width="16.757" height="16.757"/><rect x="699.189" y="801.622" width="16.757" height="16.757"/><rect x="715.946" y="801.622" width="16.757" height="16.757"/><rect x="732.703" y="801.622" width="16.757" height="16.757"/><rect x="297.027" y="818.378" width="16.757" height="16.757"/><rect x="330.541" y="818.378" width="16.757" height="16.757"/><rect x="364.054" y="818.378" width="16.757" height="16.757"/><rect x="447.838" y="818.378" width="16.757" height="16.757"/><rect x="464.595" y="818.378" width="16.757" height="16.757"/><rect x="481.351" y="818.378" width="16.757" height="16.757"/><rect x="498.108" y="818.378" width="16.757" height="16.757"/><rect x="531.622" y="818.378" width="16.757" height="16.757"/><rect x="565.135" y="818.378" width="16.757" height="16.757"/><rect x="648.919" y="818.378" width="16.757" height="16.757"/><rect x="665.676" y="818.378" width="16.757" height="16.757"/><rect x="749.459" y="818.378" width="16.757" height="16.757"/><rect x="297.027" y="835.135" width="16.757" height="16.757"/><rect x="330.541" y="835.135" width="16.757" height="16.757"/><rect x="347.297" y="835.135" width="16.757" height="16.757"/><rect x="380.811" y="835.135" width="16.757" height="16.757"/><rect x="397.568" y="835.135" width="16.757" height="16.757"/><rect x="414.324" y="835.135" width="16.757" height="16.757"/><rect x="481.351" y="835.135" width="16.757" height="16.757"/><rect x="498.108" y="835.135" width="16.757" height="16.757"/><rect x="565.135" y="835.135" width="16.757" height="16.757"/><rect x="581.892" y="835.135" width="16.757" height="16.757"/><rect x="598.649" y="835.135" width="16.757" height="16.757"/><rect x="715.946" y="835.135" width="16.757" height="16.757"/><rect x="732.703" y="835.135" width="16.757" height="16.757"/><rect x="297.027" y="851.892" width="16.757" height="16.757"/><rect x="313.784" y="851.892" width="16.757" height="16.757"/><rect x="347.297" y="851.892" width="16.757" height="16.757"/><rect x="364.054" y="851.892" width="16.757" height="16.757"/><rect x="447.838" y="851.892" width="16.757" height="16.757"/><rect x="464.595" y="851.892" width="16.757" height="16.757"/><rect x="481.351" y="851.892" width="16.757" height="16.757"/><rect x="498.108" y="851.892" width="16.757" height="16.757"/><rect x="514.865" y="851.892" width="16.757" height="16.757"/><rect x="531.622" y="851.892" width="16.757" height="16.757"/><rect x="548.378" y="851.892" width="16.757" height="16.757"/><rect x="581.892" y="851.892" width="16.757" height="16.757"/><rect x="598.649" y="851.892" width="16.757" height="16.757"/><rect x="615.405" y="851.892" width="16.757" height="16.757"/><rect x="632.162" y="851.892" width="16.757" height="16.757"/><rect x="665.676" y="851.892" width="16.757" height="16.757"/><rect x="682.432" y="851.892" width="16.757" height="16.757"/><rect x="699.189" y="851.892" width="16.757" height="16.757"/><rect x="732.703" y="851.892" width="16.757" height="16.757"/><rect x="766.216" y="851.892" width="16.757" height="16.757"/><rect x="297.027" y="868.649" width="16.757" height="16.757"/><rect x="330.541" y="868.649" width="16.757" height="16.757"/><rect x="380.811" y="868.649" width="16.757" height="16.757"/><rect x="397.568" y="868.649" width="16.757" height="16.757"/><rect x="514.865" y="868.649" width="16.757" height="16.757"/><rect x="531.622" y="868.649" width="16.757" height="16.757"/><rect x="548.378" y="868.649" width="16.757" height="16.757"/><rect x="565.135" y="868.649" width="16.757" height="16.757"/><rect x="581.892" y="868.649" width="16.757" height="16.757"/><rect x="648.919" y="868.649" width="16.757" height="16.757"/><rect x="732.703" y="868.649" width="16.757" height="16.757"/><rect x="297.027" y="885.405" width="16.757" height="16.757"/><rect x="414.324" y="885.405" width="16.757" height="16.757"/><rect x="464.595" y="885.405" width="16.757" height="16.757"/><rect x="498.108" y="885.405" width="16.757" height="16.757"/><rect x="514.865" y="885.405" width="16.757" height="16.757"/><rect x="548.378" y="885.405" width="16.757" height="16.757"/><rect x="598.649" y="885.405" width="16.757" height="16.757"/><rect x="632.162" y="885.405" width="16.757" height="16.757"/><rect x="648.919" y="885.405" width="16.757" height="16.757"/><rect x="665.676" y="885.405" width="16.757" height="16.757"/><rect x="699.189" y="885.405" width="16.757" height="16.757"/><rect x="749.459" y="885.405" width="16.757" height="16.757"/><rect x="297.027" y="902.162" width="16.757" height="16.757"/><rect x="347.297" y="902.162" width="16.757" height="16.757"/><rect x="364.054" y="902.162" width="16.757" height="16.757"/><rect x="397.568" y="902.162" width="16.757" height="16.757"/><rect x="431.081" y="902.162" width="16.757" height="16.757"/><rect x="447.838" y="902.162" width="16.757" height="16.757"/><rect x="498.108" y="902.162" width="16.757" height="16.757"/><rect x="531.622" y="902.162" width="16.757" height="16.757"/><rect x="548.378" y="902.162" width="16.757" height="16.757"/><rect x="581.892" y="902.162" width="16.757" height="16.757"/><rect x="632.162" y="902.162" width="16.757" height="16.757"/><rect x="648.919" y="902.162" width="16.757" height="16.757"/><rect x="665.676" y="902.162" width="16.757" height="16.757"/><rect x="682.432" y="902.162" width="16.757" height="16.757"/><rect x="699.189" y="902.162" width="16.757" height="16.757"/><rect x="732.703" y="902.162" width="16.757" height="16.757"/><rect x="749.459" y="902.162" width="16.757" height="16.757"/><rect x="766.216" y="902.162" width="16.757" height="16.757"/><rect x="464.595" y="918.919" width="16.757" height="16.757"/><rect x="481.351" y="918.919" width="16.757" height="16.757"/><rect x="498.108" y="918.919" width="16.757" height="16.757"/><rect x="548.378" y="918.919" width="16.757" height="16.757"/><rect x="565.135" y="918.919" width="16.757" height="16.757"/><rect x="615.405" y="918.919" width="16.757" height="16.757"/><rect x="632.162" y="918.919" width="16.757" height="16.757"/><rect x="699.189" y="918.919" width="16.757" height="16.757"/><rect x="715.946" y="918.919" width="16.757" height="16.757"/><rect x="732.703" y="918.919" width="16.757" height="16.757"/><rect x="749.459" y="918.919" width="16.757" height="16.757"/><rect x="766.216" y="918.919" width="16.757" height="16.757"/><rect x="297.027" y="935.676" width="16.757" height="16.757"/><rect x="313.784" y="935.676" width="16.757" height="16.757"/><rect x="330.541" y="935.676" width="16.757" height="16.757"/><rect x="347.297" y="935.676" width="16.757" height="16.757"/><rect x="364.054" y="935.676" width="16.757" height="16.757"/><rect x="380.811" y="935.676" width="16.757" height="16.757"/><rect x="397.568" y="935.676" width="16.757" height="16.757"/><rect x="447.838" y="935.676" width="16.757" height="16.757"/><rect x="464.595" y="935.676" width="16.757" height="16.757"/><rect x="481.351" y="935.676" width="16.757" height="16.757"/><rect x="581.892" y="935.676" width="16.757" height="16.757"/><rect x="598.649" y="935.676" width="16.757" height="16.757"/><rect x="615.405" y="935.676" width="16.757" height="16.757"/><rect x="632.162" y="935.676" width="16.757" height="16.757"/><rect x="665.676" y="935.676" width="16.757" height="16.757"/><rect x="699.189" y="935.676" width="16.757" height="16.757"/><rect x="715.946" y="935.676" width="16.757" height="16.757"/><rect x="732.703" y="935.676" width="16.757" height="16.757"/><rect x="297.027" y="952.432" width="16.757" height="16.757"/><rect x="397.568" y="952.432" width="16.757" height="16.757"/><rect x="431.081" y="952.432" width="16.757" height="16.757"/><rect x="498.108" y="952.432" width="16.757" height="16.757"/><rect x="531.622" y="952.432" width="16.757" height="16.757"/><rect x="565.135" y="952.432" width="16.757" height="16.757"/><rect x="598.649" y="952.432" width="16.757" height="16.757"/><rect x="615.405" y="952.432" width="16.757" height="16.757"/><rect x="632.162" y="952.432" width="16.757" height="16.757"/><rect x="699.189" y="952.432" width="16.757" height="16.757"/><rect x="749.459" y="952.432" width="16.757" height="16.757"/><rect x="766.216" y="952.432" width="16.757" height="16.757"/><rect x="297.027" y="969.189" width="16.757" height="16.757"/><rect x="330.541" y="969.189" width="16.757" height="16.757"/><rect x="347.297" y="969.189" width="16.757" height="16.757"/><rect x="364.054" y="969.189" width="16.757" height="16.757"/><rect x="397.568" y="969.189" width="16.757" height="16.757"/><rect x="431.081" y="969.189" width="16.757" height="16.757"/><rect x="464.595" y="969.189" width="16.757" height="16.757"/><rect x="498.108" y="969.189" width="16.757" height="16.757"/><rect x="581.892" y="969.189" width="16.757" height="16.757"/><rect x="632.162" y="969.189" width="16.757" height="16.757"/><rect x="648.919" y="969.189" width="16.757" height="16.757"/><rect x="665.676" y="969.189" width="16.757" height="16.757"/><rect x="682.432" y="969.189" width="16.757" height="16.757"/><rect x="699.189" y="969.189" width="16.757" height="16.757"/><rect x="732.703" y="969.189" width="16.757" height="16.757"/><rect x="766.216" y="969.189" width="16.757" height="16.757"/><rect x="297.027" y="985.946" width="16.757" height="16.757"/><rect x="330.541" y="985.946" width="16.757" height="16.757"/><rect x="347.297" y="985.946" width="16.757" height="16.757"/><rect x="364.054" y="985.946" width="16.757" height="16.757"/><rect x="397.568" y="985.946" width="16.757" height="16.757"/><rect x="431.081" y="985.946" width="16.757" height="16.757"/><rect x="464.595" y="985.946" width="16.757" height="16.757"/><rect x="481.351" y="985.946" width="16.757" height="16.757"/><rect x="498.108" y="985.946" width="16.757" height="16.757"/><rect x="531.622" y="985.946" width="16.757" height="16.757"/><rect x="548.378" y="985.946" width="16.757" height="16.757"/><rect x="615.405" y="985.946" width="16.757" height="16.757"/><rect x="632.162" y="985.946" width="16.757" height="16.757"/><rect x="682.432" y="985.946" width="16.757" height="16.757"/><rect x="715.946" y="985.946" width="16.757" height="16.757"/><rect x="732.703" y="985.946" width="16.757" height="16.757"/><rect x="297.027" y="1002.703" width="16.757" height="16.757"/><rect x="330.541" y="1002.703" width="16.757" height="16.757"/><rect x="347.297" y="1002.703" width="16.757" height="16.757"/><rect x="364.054" y="1002.703" width="16.757" height="16.757"/><rect x="397.568" y="1002.703" width="16.757" height="16.757"/><rect x="431.081" y="1002.703" width="16.757" height="16.757"/><rect x="464.595" y="1002.703" width="16.757" height="16.757"/><rect x="531.622" y="1002.703" width="16.757" height="16.757"/><rect x="548.378" y="1002.703" width="16.757" height="16.757"/><rect x="565.135" y="1002.703" width="16.757" height="16.757"/><rect x="648.919" y="1002.703" width="16.757" height="16.757"/><rect x="665.676" y="1002.703" width="16.757" height="16.757"/><rect x="682.432" y="1002.703" width="16.757" height="16.757"/><rect x="699.189" y="1002.703" width="16.757" height="16.757"/><rect x="715.946" y="1002.703" width="16.757" height="16.757"/><rect x="732.703" y="1002.703" width="16.757" height="16.757"/><rect x="749.459" y="1002.703" width="16.757" height="16.757"/><rect x="297.027" y="1019.459" width="16.757" height="16.757"/><rect x="397.568" y="1019.459" width="16.757" height="16.757"/><rect x="481.351" y="1019.459" width="16.757" height="16.757"/><rect x="498.108" y="1019.459" width="16.757" height="16.757"/><rect x="514.865" y="1019.459" width="16.757" height="16.757"/><rect x="531.622" y="1019.459" width="16.757" height="16.757"/><rect x="565.135" y="1019.459" width="16.757" height="16.757"/><rect x="615.405" y="1019.459" width="16.757" height="16.757"/><rect x="632.162" y="1019.459" width="16.757" height="16.757"/><rect x="665.676" y="1019.459" width="16.757" height="16.757"/><rect x="699.189" y="1019.459" width="16.757" height="16.757"/><rect x="715.946" y="1019.459" width="16.757" height="16.757"/><rect x="749.459" y="1019.459" width="16.757" height="16.757"/><rect x="297.027" y="1036.216" width="16.757" height="16.757"/><rect x="313.784" y="1036.216" width="16.757" height="16.757"/><rect x="330.541" y="1036.216" width="16.757" height="16.757"/><rect x="347.297" y="1036.216" width="16.757" height="16.757"/><rect x="364.054" y="1036.216" width="16.757" height="16.757"/><rect x="380.811" y="1036.216" width="16.757" height="16.757"/><rect x="397.568" y="1036.216" width="16.757" height="16.757"/><rect x="431.081" y="1036.216" width="16.757" height="16.757"/><rect x="498.108" y="1036.216" width="16.757" height="16.757"/><rect x="581.892" y="1036.216" width="16.757" height="16.757"/><rect x="598.649" y="1036.216" width="16.757" height="16.757"/><rect x="615.405" y="1036.216" width="16.757" height="16.757"/><rect x="665.676" y="1036.216" width="16.757" height="16.757"/><rect x="699.189" y="1036.216" width="16.757" height="16.757"/><rect x="715.946" y="1036.216" width="16.757" height="16.757"/><rect x="732.703" y="1036.216" width="16.757" height="16.757"/></g>
  <text x="540" y="1238" text-anchor="middle" fill="#1f2523" font-family="Arial, sans-serif" font-size="42" font-weight="800">Актуальные цены на телефоне</text>
  <text x="540" y="1302" text-anchor="middle" fill="#68716c" font-family="Arial, sans-serif" font-size="28">Продукты, снеки и напитки</text>
  <text x="540" y="1382" text-anchor="middle" fill="#0b4f4a" font-family="Arial, sans-serif" font-size="23">https://price.rostavending.ru/</text>
</svg>
